<svg width="106" height="12" viewBox="0 0 106 12" fill="none" xmlns="http://www.w3.org/2000/svg">
<path d="M11.565 0.649999L10.83 3.17H1.845C2.035 2.53 2.385 1.965 2.895 1.475C3.465 0.924999 4.055 0.649999 4.665 0.649999H11.565ZM9.435 8.225L8.655 11.015H3.9C2.25 11.015 1.2 10.49 0.75 9.44C0.61 9.12 0.565 8.675 0.615 8.105C0.625 7.995 0.645 7.795 0.675 7.505L1.56 4.16L5.28 4.145L4.2 7.46C4.23 7.59 4.26 7.725 4.29 7.865C4.38 8.045 4.565 8.165 4.845 8.225H9.435ZM23.2859 3.14H11.6609L13.2509 0.649999H21.7859C22.0159 0.649999 22.2459 0.729999 22.4759 0.89C22.7159 1.05 22.8959 1.24 23.0159 1.46C23.1959 1.79 23.2859 2.35 23.2859 3.14ZM23.1059 4.145C23.0259 4.755 22.6759 5.33 22.0559 5.87C21.7759 6.12 21.5409 6.275 21.3509 6.335C21.5809 6.695 21.6959 7.075 21.6959 7.475C21.6959 7.705 21.6609 8.03 21.5909 8.45C21.5509 8.71 21.2909 9.555 20.8109 10.985H17.4509L18.6509 6.86H15.1109L13.8359 10.985H10.3409L12.3509 4.145H23.1059ZM33.5602 0.62L31.2952 3.155H23.9602L23.4202 0.665H27.1852L27.4702 1.82L28.5802 0.605L33.5602 0.62ZM30.3502 4.145L28.5202 6.11L27.1852 10.985H23.2552L24.6502 6.08L24.2152 4.175L30.3502 4.145ZM44.5474 3.155H33.0124L34.5574 0.649999H43.0324C43.2624 0.649999 43.4974 0.729999 43.7374 0.89C43.9774 1.05 44.1524 1.24 44.2624 1.46C44.4524 1.81 44.5474 2.375 44.5474 3.155ZM44.2774 4.145C44.2374 4.395 44.1424 4.685 43.9924 5.015C43.4024 6.245 41.9924 6.86 39.7624 6.86H36.3124L35.1574 10.985H31.7224L33.5974 4.16L44.2774 4.145ZM55.1918 0.649999L54.5018 3.14H44.5118L46.1018 0.649999H55.1918ZM51.3068 4.145L49.4918 10.985H46.0568L47.9168 4.145H51.3068ZM65.4235 3.17H55.5385C55.7385 2.49 56.0785 1.915 56.5585 1.445C57.1485 0.875 57.7585 0.59 58.3885 0.59H63.4885C64.7785 0.59 65.4235 1.275 65.4235 2.645C65.4235 2.985 65.4235 3.16 65.4235 3.17ZM65.2135 4.13L65.1535 4.37C64.9935 4.89 64.7185 5.84 64.3285 7.22C64.0785 8.09 63.6935 8.82 63.1735 9.41C62.2335 10.47 60.9735 11 59.3935 11H57.6085C56.6485 11 55.8885 10.82 55.3285 10.46C54.6385 10.03 54.2935 9.365 54.2935 8.465C54.2935 7.985 54.3685 7.475 54.5185 6.935L55.2685 4.16H58.7635L57.7285 7.805C57.6885 7.975 57.6685 8.105 57.6685 8.195C57.6685 8.395 57.7585 8.52 57.9385 8.57H60.1135C60.3835 8.5 60.5835 8.245 60.7135 7.805L61.7935 4.145L65.2135 4.13ZM70.5552 0.649999L69.8052 3.155H66.1752L66.8652 0.68L70.5552 0.649999ZM73.3752 8.435L71.2752 10.985H63.9852L65.9202 4.145H69.5652L68.3652 8.42L73.3752 8.435ZM84.404 3.17H74.519C74.719 2.49 75.059 1.915 75.539 1.445C76.129 0.875 76.739 0.59 77.369 0.59H82.469C83.759 0.59 84.404 1.275 84.404 2.645C84.404 2.985 84.404 3.16 84.404 3.17ZM84.194 4.13L84.134 4.37C83.974 4.89 83.699 5.84 83.309 7.22C83.059 8.09 82.674 8.82 82.154 9.41C81.214 10.47 79.954 11 78.374 11H76.589C75.629 11 74.869 10.82 74.309 10.46C73.619 10.03 73.274 9.365 73.274 8.465C73.274 7.985 73.349 7.475 73.499 6.935L74.249 4.16H77.744L76.709 7.805C76.669 7.975 76.649 8.105 76.649 8.195C76.649 8.395 76.739 8.52 76.919 8.57H79.094C79.364 8.5 79.564 8.245 79.694 7.805L80.774 4.145L84.194 4.13ZM95.3107 0.649999L94.6957 3.155H84.9007C85.0807 2.575 85.4307 2.025 85.9507 1.505C86.5207 0.934999 87.1157 0.649999 87.7357 0.649999H95.3107ZM94.4257 4.52L93.6307 7.46C93.4107 8.26 93.0757 8.925 92.6257 9.455C91.7557 10.475 90.4907 10.985 88.8307 10.985H87.0307C85.2907 10.985 84.2257 10.49 83.8357 9.5C83.6757 9.1 83.5957 8.735 83.5957 8.405C83.5957 8.135 83.6457 7.815 83.7457 7.445L84.6757 4.145H88.2157L87.3307 7.235C87.2807 7.405 87.2557 7.53 87.2557 7.61C87.2557 7.81 87.3557 7.94 87.5557 8H89.6857C89.9857 7.92 90.1857 7.665 90.2857 7.235L90.3157 7.055L88.0957 7.085L89.6857 4.52H94.4257ZM105.632 0.62L103.367 3.155H96.0315L95.4915 0.665H99.2565L99.5415 1.82L100.652 0.605L105.632 0.62ZM102.422 4.145L100.592 6.11L99.2565 10.985H95.3265L96.7215 6.08L96.2865 4.175L102.422 4.145Z" fill="white"/>
</svg>
